<svg fill="none" height="25" viewBox="0 0 138 25" width="138" xmlns="http://www.w3.org/2000/svg"><clipPath id="a"><path d="M0 0h138v24.456H0z"/></clipPath><g clip-path="url(#a)"><path d="M136.692 16.999a4.73 4.73 0 01-1.564 1.687c-.676.45-1.505.675-2.489.675a4.628 4.628 0 01-1.804-.346 4.275 4.275 0 01-1.431-.967 4.433 4.433 0 01-.942-1.465 5.198 5.198 0 01-.018-3.639 4.53 4.53 0 01.898-1.473 4.271 4.271 0 013.208-1.376 4.563 4.563 0 011.804.337 3.82 3.82 0 011.343.942c.378.423.665.919.844 1.457.203.6.296 1.231.274 1.864a3.758 3.758 0 01-.035.462h-6.683c.026.378.128.745.302 1.081.153.292.362.55.614.762.238.199.513.35.809.443.281.092.575.14.871.142.5.02.993-.123 1.404-.408a3.38 3.38 0 00.906-1.013zm-1.831-3.351a2.467 2.467 0 00-.169-.596 1.813 1.813 0 00-.409-.604 2.354 2.354 0 00-.711-.47 2.57 2.57 0 00-1.057-.196 2.232 2.232 0 00-1.467.507 2.48 2.48 0 00-.826 1.358zm-28.955-1.555h-1.508v-1.718h1.508V7.746h1.947v2.63h2.122v1.717h-2.122v3.924c-.002.2.022.4.07.594.039.163.11.316.211.45a.952.952 0 00.754.342c.147.005.295-.01.439-.044.115-.033.226-.077.333-.13l.596 1.717c-.25.094-.509.168-.772.219a4.77 4.77 0 01-.912.079 2.816 2.816 0 01-1.087-.197 2.606 2.606 0 01-.824-.536c-.503-.513-.755-1.21-.755-2.092zm9.689-1.998a4.676 4.676 0 011.807.341 4.2 4.2 0 011.42.955c.404.419.72.913.93 1.455a5.155 5.155 0 010 3.646 4.365 4.365 0 01-.93 1.454 4.187 4.187 0 01-1.42.956 4.943 4.943 0 01-3.613 0 4.19 4.19 0 01-1.421-.956 4.363 4.363 0 01-.93-1.454 5.155 5.155 0 010-3.646 4.37 4.37 0 01.93-1.455 4.191 4.191 0 011.421-.955 4.665 4.665 0 011.806-.342zm0 7.343c.326 0 .648-.065.947-.193a2.528 2.528 0 001.386-1.41 3.34 3.34 0 000-2.332 2.528 2.528 0 00-2.333-1.603c-.325 0-.647.065-.947.193a2.527 2.527 0 00-1.386 1.41 3.34 3.34 0 000 2.332 2.525 2.525 0 001.386 1.41c.299.128.622.194.947.193zm6.25-7.059h1.865v1.313h.107a2.46 2.46 0 01.435-.63c.183-.194.392-.362.622-.498.23-.137.474-.25.728-.337.237-.085.486-.13.737-.132.245-.005.49.022.729.08.202.056.398.135.582.237l-.655 1.754a2.006 2.006 0 00-.38-.11 3.116 3.116 0 00-.578-.044 1.966 1.966 0 00-.879.196 2.279 2.279 0 00-.702.535 2.445 2.445 0 00-.471.803c-.113.315-.17.647-.168.982v4.443h-1.972zm-25.614 7.923c.43.312.91.551 1.417.708a5.563 5.563 0 003.172.01 4.479 4.479 0 001.471-.717c.443-.33.811-.75 1.082-1.232.294-.55.439-1.167.421-1.79a3.983 3.983 0 00-.272-1.524 3.608 3.608 0 00-.761-1.153 4.84 4.84 0 00-1.152-.859 9.205 9.205 0 00-1.467-.628l-.868-.308a6.788 6.788 0 01-1.804-.869 1.5 1.5 0 01-.642-1.255 1.446 1.446 0 01.185-.718c.125-.22.293-.412.495-.566.22-.166.467-.292.73-.37.29-.088.591-.131.894-.13.323-.005.644.049.947.16.254.097.493.231.707.399.195.154.361.34.492.552.101.163.186.334.255.513l1.794-.756a4.962 4.962 0 00-.434-.853 3.71 3.71 0 00-.817-.91 4.364 4.364 0 00-1.253-.688 5.042 5.042 0 00-1.73-.273 4.933 4.933 0 00-1.729.293 4.17 4.17 0 00-1.346.8 3.635 3.635 0 00-.874 1.172c-.205.442-.31.925-.309 1.413-.01.483.088.963.29 1.403.186.389.44.741.75 1.04.311.298.66.552 1.04.756a7.59 7.59 0 001.13.503l.867.308c.442.155.875.333 1.298.533.32.146.618.335.887.561.214.183.386.41.504.666.11.255.165.53.162.806.006.31-.067.617-.213.89-.138.251-.327.47-.554.644a2.37 2.37 0 01-.8.39 3.46 3.46 0 01-.949.129 2.743 2.743 0 01-1.084-.21 3.06 3.06 0 01-.873-.564 3.309 3.309 0 01-.653-.84 4.263 4.263 0 01-.376-.93l-1.906.776c.16.552.407 1.074.733 1.547.314.451.7.847 1.143 1.171zm-57.908.944c-3.917 0-7.21-3.186-7.21-7.1 0-3.914 3.293-7.1 7.21-7.1a6.775 6.775 0 014.87 1.956l-1.369 1.369a4.952 4.952 0 00-3.5-1.386c-2.861 0-5.096 2.304-5.096 5.16 0 2.858 2.235 5.161 5.095 5.161 1.854 0 2.911-.744 3.587-1.42.555-.554.919-1.35 1.057-2.441h-4.644v-1.94h6.534c.073.4.107.806.103 1.212 0 1.455-.398 3.256-1.681 4.537-1.247 1.299-2.842 1.992-4.956 1.992zm16.967-4.572a4.547 4.547 0 01-4.55 4.572 4.554 4.554 0 01-4.213-2.824 4.543 4.543 0 01-.34-1.748 4.546 4.546 0 014.552-4.572 4.555 4.555 0 014.212 2.824c.228.554.343 1.148.34 1.748zm-1.99 0c0-1.645-1.187-2.771-2.56-2.771-1.375 0-2.56 1.126-2.56 2.77 0 1.629 1.185 2.771 2.56 2.771 1.373 0 2.56-1.142 2.56-2.77zm12.106 0a4.545 4.545 0 01-2.804 4.223 4.554 4.554 0 01-6.3-4.223 4.544 4.544 0 012.805-4.223 4.556 4.556 0 015.96 2.475 4.57 4.57 0 01.34 1.748zm-1.993 0c0-1.645-1.184-2.771-2.56-2.771-1.373 0-2.559 1.126-2.559 2.77 0 1.629 1.186 2.771 2.56 2.771 1.375 0 2.56-1.142 2.56-2.77zm11.89-4.294v8.208c0 3.376-1.992 4.762-4.35 4.762a4.36 4.36 0 01-4.054-2.701l1.75-.728c.311.745 1.075 1.628 2.304 1.628 1.508 0 2.444-.936 2.444-2.684v-.659h-.07c-.45.555-1.316 1.04-2.408 1.04-2.287 0-4.384-1.992-4.384-4.555 0-2.58 2.097-4.589 4.384-4.589 1.092 0 1.959.485 2.409 1.022h.069v-.745zm-1.768 4.311c0-1.61-1.074-2.788-2.442-2.788-1.388 0-2.549 1.178-2.549 2.788 0 1.593 1.161 2.753 2.549 2.753 1.368 0 2.442-1.16 2.442-2.753zm5.806-9.161v13.44h-2.01V5.53zm8.554 10.65l1.559 1.04a4.55 4.55 0 01-3.813 2.026c-2.6 0-4.54-2.009-4.54-4.572 0-2.72 1.958-4.572 4.314-4.572 2.375 0 3.537 1.887 3.918 2.909l.207.52-6.117 2.529c.468.917 1.195 1.384 2.218 1.384s1.733-.502 2.254-1.264zm-4.801-1.645l4.09-1.697c-.226-.571-.902-.97-1.7-.97-1.021 0-2.442.901-2.39 2.667z" fill="#5f6368"/><path d="M24.39 12.426a10.384 10.384 0 00-.266-2.492H12.442v4.517h6.854c-.136 1.13-.89 2.812-2.546 3.95v2.984h3.927c2.35-2.122 3.713-5.25 3.713-8.959z" fill="#4285f4"/><path d="M12.442 24.335c3.357 0 6.174-1.09 8.235-2.95L16.75 18.4c-1.049.72-2.457 1.224-4.308 1.224a7.502 7.502 0 01-7.085-5.067H1.333v3.058a12.454 12.454 0 0011.11 6.72z" fill="#34a853"/><path d="M5.357 14.556a7.34 7.34 0 010-4.815V6.683H1.333a11.873 11.873 0 000 10.932z" fill="#fbbc04"/><path d="M12.442 4.674c2.343 0 3.907.987 4.804 1.814l3.521-3.349c-2.156-1.968-4.969-3.176-8.325-3.176a12.466 12.466 0 00-11.109 6.72L5.357 9.74a7.493 7.493 0 017.085-5.067z" fill="#ea4335"/></g></svg>